# xmcd
#
# Track frame offsets:
#	150
#	11582
#	28190
#	43641
#	59997
#	74871
#	87224
#	105424
#	119539
#	134237
#	145313
#	161085
#	178426
#	197023
#	210995
#	225860
#
# Disc length: 3255 seconds
#
# Revision: 0
# Processed by: cddbd v1.5.1PL0 Copyright (c) Steve Scherf et al.
# Submitted via: dBpowerAMP V4.0
#
DISCID=f50cb510
DTITLE=Varios Artistas - Mano Véio Mano Novo 20 anos de sucesso
DYEAR=2005
DGENRE=Country
TTITLE0=VOU BOTAR MEU PINTO NO SEGURO - CRISTIANO NEVES
TTITLE1=ELA NASCEU PRÁ MIM - CRISTIANO NEVES
TTITLE2=SONHO LINDO - BANDA DOMINIO
TTITLE3=É HOJE QUE EU SÓ CHEGO AMANHÃ - AMAZAN
TTITLE4=PARABÉNS MANO VÉIO MANO NOVO - AMAZAN
TTITLE5=DEPRESSAAMOR - CARLOS MAIS
TTITLE6=BYE BYE TRISTEZA - FRANCYS LOPES
TTITLE7=PODE ME BATER- FRANCYS LOPES
TTITLE8=PENSE - PEGADA QUENTE
TTITLE9=MULHER E SELA - PEGADA QUENTE
TTITLE10=EU TE AMO - GATINHA MANHOSA
TTITLE11=LEILÃO - GATINHA MANHOSA
TTITLE12=NEM VEM QUE NÃO TEM - ROBÉRIO E SEUS TECLADOS
TTITLE13=VOLTA AMOR - ROBÉRIO E SEUS TECLADOS
TTITLE14=LIBERE O TONHO - ARRIBA SAIA
TTITLE15=MARIA GASOLINA - ARRIBA SAIA
EXTD=
EXTT0=
EXTT1=
EXTT2=
EXTT3=
EXTT4=
EXTT5=
EXTT6=
EXTT7=
EXTT8=
EXTT9=
EXTT10=
EXTT11=
EXTT12=
EXTT13=
EXTT14=
EXTT15=
PLAYORDER=
